<?xml version="1.0" standalone="no"?>
<!DOCTYPE svg PUBLIC "-//W3C//DTD SVG 20010904//EN"
 "http://www.w3.org/TR/2001/REC-SVG-20010904/DTD/svg10.dtd">
<svg version="1.0" xmlns="http://www.w3.org/2000/svg"
 width="471.000000pt" height="471.000000pt" viewBox="0 0 471.000000 471.000000"
 preserveAspectRatio="xMidYMid meet">
<metadata>
Created by potrace 1.11, written by Peter Selinger 2001-2013
</metadata>
<g transform="translate(0.000000,471.000000) scale(0.100000,-0.100000)"
fill="#000000" stroke="none">
<path d="M755 4695 c-49 -17 -81 -53 -95 -104 -7 -27 -9 -741 -8 -2257 3
-2212 3 -2219 23 -2254 12 -19 36 -43 55 -55 35 -20 44 -20 1620 -20 1576 0
1585 0 1620 20 19 12 43 36 55 55 20 35 20 40 20 2275 0 2235 0 2240 -20 2275
-12 19 -36 43 -55 55 -35 20 -46 20 -1605 22 -1336 2 -1576 0 -1610 -12z
m3145 -2330 c0 -1207 -3 -2195 -6 -2195 -33 0 -33 -5 -34 2193 0 1186 -3 2157
-7 2157 -5 0 -7 -211 -5 -469 l3 -469 -22 5 c-15 4 -20 3 -15 -5 4 -7 14 -12
22 -12 11 0 14 -25 14 -139 l0 -139 -25 -4 c-17 -4 -25 -1 -25 8 0 8 -4 14
-10 14 -15 0 -12 337 3 344 9 5 9 7 0 12 -18 8 -16 27 2 21 8 -4 17 -2 20 3 4
6 -3 10 -14 10 -18 0 -19 8 -20 131 -1 86 2 136 10 145 7 9 8 14 1 14 -7 0
-11 68 -12 200 -1 177 1 200 15 200 9 0 13 5 10 10 -4 6 -11 8 -16 5 -5 -4 -9
1 -9 10 0 22 -32 54 -38 37 -4 -14 -162 -17 -162 -3 0 5 6 11 13 14 6 2 9 7 6
11 -3 3 -19 -4 -34 -16 l-28 -22 -19 24 c-16 20 -20 21 -36 8 -18 -16 -72 -23
-72 -10 0 5 10 18 23 30 18 17 37 22 102 25 44 1 -44 3 -195 3 -240 0 -253 -1
-98 -6 l178 -5 -20 -33 -20 -33 -250 1 c-222 1 -279 7 -237 23 7 3 5 6 -5 6
-10 1 -18 -5 -18 -11 -1 -7 -7 1 -14 17 -12 29 -12 30 18 36 17 4 -435 7
-1004 8 -1028 1 -1060 2 -1060 32 0 3 695 7 1545 8 l1545 1 0 -2195z m-2056
2124 c-8 -14 -24 -10 -24 6 0 9 6 12 15 9 8 -4 12 -10 9 -15z m439 1 c-6 -22
-6 -22 -27 -14 -20 7 -9 34 14 34 13 0 17 -5 13 -20z m224 14 c-3 -3 -12 -4
-19 -1 -8 3 -5 6 6 6 11 1 17 -2 13 -5z m138 -4 c-4 -6 -11 -8 -16 -5 -5 4 -9
1 -9 -4 0 -6 -8 -11 -17 -10 -11 0 -13 3 -5 6 6 2 10 9 6 14 -3 5 7 9 21 9 15
0 24 -4 20 -10z m84 6 c-11 -9 -69 -14 -69 -6 0 6 17 10 37 10 20 0 34 -2 32
-4z m68 -11 c8 -23 -5 -31 -20 -13 -6 9 -19 18 -27 21 -8 3 -2 6 13 6 16 1 30
-5 34 -14z m-1347 -19 c0 -8 6 -17 13 -19 7 -3 5 -6 -5 -6 -10 -1 -18 5 -18
13 0 8 -6 17 -12 19 -8 3 -6 6 5 6 9 1 17 -5 17 -13z m60 -12 c0 -8 -5 -12
-10 -9 -6 4 -8 11 -5 16 9 14 15 11 15 -7z m95 6 c3 -5 -1 -10 -9 -10 -8 0
-18 5 -21 10 -3 6 1 10 9 10 8 0 18 -4 21 -10z m1160 0 c-3 -5 1 -10 9 -10 9
0 16 -5 16 -11 0 -6 -7 -8 -16 -5 -9 3 -24 6 -35 6 -10 0 -19 7 -19 15 0 9 10
15 26 15 14 0 23 -4 19 -10z m80 0 c3 -5 -3 -10 -14 -10 -12 0 -21 5 -21 10 0
6 6 10 14 10 8 0 18 -4 21 -10z m-1425 -10 c0 -5 -2 -10 -4 -10 -3 0 -8 5 -11
10 -3 6 -1 10 4 10 6 0 11 -4 11 -10z m1040 0 c8 -5 11 -10 5 -10 -5 0 -17 5
-25 10 -8 5 -10 10 -5 10 6 0 17 -5 25 -10z m205 0 c3 -5 1 -10 -4 -10 -6 0
-11 5 -11 10 0 6 2 10 4 10 3 0 8 -4 11 -10z m845 -11 c0 -5 -4 -9 -10 -9 -5
0 -10 7 -10 16 0 8 5 12 10 9 6 -3 10 -10 10 -16z m-2583 -3127 c-1 -570 -2
-103 -2 1038 0 1141 1 1608 2 1037 2 -570 2 -1504 0 -2075z m192 3094 c-8 -9
-169 -12 -169 -4 0 4 39 8 87 8 47 0 84 -2 82 -4z m99 -3 c-10 -2 -28 -2 -40
0 -13 2 -5 4 17 4 22 1 32 -1 23 -4z m249 1 c-9 -10 -87 -11 -93 -2 -3 4 18 8
47 8 29 0 50 -3 46 -6z m40 0 c-3 -3 -12 -4 -19 -1 -8 3 -5 6 6 6 11 1 17 -2
13 -5z m106 -1 c-18 -2 -48 -2 -65 0 -18 2 -4 4 32 4 36 0 50 -2 33 -4z m532
0 c-11 -2 -27 -18 -35 -36 -12 -26 -21 -32 -45 -31 -16 0 -33 -4 -37 -10 -13
-19 -27 7 -17 32 7 17 16 22 45 22 52 0 39 6 -29 14 -36 4 -56 3 -53 -3 4 -5
1 -13 -5 -17 -8 -4 -9 -3 -5 4 5 8 -5 12 -31 13 -128 2 -277 10 -281 14 -3 3
111 4 254 4 142 -1 250 -4 239 -6z m321 -1 c-6 -9 -263 -8 -273 2 -3 3 58 6
136 6 78 0 140 -4 137 -8z m264 0 c0 -10 -238 -8 -247 2 -4 3 51 6 120 6 70 0
127 -4 127 -8z m1030 -1924 c0 -1062 -2 -1929 -5 -1926 -3 3 -6 302 -7 664 0
362 -3 666 -5 674 -2 9 -14 20 -26 25 -23 11 -38 65 -17 65 6 0 9 -3 7 -7 -2
-5 7 -19 20 -32 l23 -25 0 360 c-1 197 -4 369 -7 382 -3 12 -11 22 -18 22 -18
0 -26 13 -30 49 -4 29 16 48 36 35 5 -3 9 0 9 5 0 6 -6 11 -12 11 -10 0 -10 2
0 9 9 5 15 36 17 86 4 85 -2 138 -16 129 -5 -3 -9 2 -9 10 0 9 6 13 13 10 10
-3 12 5 9 31 -2 19 -8 33 -12 30 -5 -3 -6 -14 -3 -25 4 -16 0 -20 -21 -20 -14
0 -26 6 -25 13 1 15 17 55 18 45 1 -5 11 2 23 14 18 18 22 35 24 93 3 93 -4
127 -25 122 -9 -2 -15 -8 -14 -15 2 -7 -4 -9 -14 -5 -12 5 -15 2 -11 -8 4 -9
-2 -21 -14 -28 -17 -11 -19 -10 -14 6 3 10 1 25 -4 33 -9 13 -10 13 -11 0 -5
-41 -4 -57 5 -75 5 -11 5 -17 1 -13 -9 9 -45 -9 -45 -22 0 -5 10 -12 21 -15
15 -5 18 -9 9 -15 -9 -5 -9 -9 -1 -14 17 -11 32 4 26 25 -4 10 -2 19 4 19 5 0
13 -10 17 -22 5 -16 1 -26 -14 -39 -20 -15 -20 -17 -4 -35 17 -19 18 -69 1
-59 -5 4 -9 0 -9 -8 0 -8 14 -20 30 -26 30 -10 42 -43 20 -56 -18 -11 -10 -23
13 -18 16 4 19 3 11 -6 -6 -6 -23 -14 -37 -17 -23 -4 -27 -1 -27 18 0 19 2 20
10 8 7 -11 10 -7 10 18 0 24 -5 35 -18 39 -13 3 -22 21 -30 60 -6 31 -9 60 -5
66 3 6 1 7 -5 3 -8 -5 -12 1 -12 18 0 14 -5 28 -11 32 -6 3 -9 14 -6 24 3 11
-1 21 -9 24 -8 3 -14 12 -14 21 0 8 -3 15 -7 15 -9 0 -11 -73 -2 -80 12 -10
51 -151 45 -165 -3 -8 -2 -15 3 -15 8 0 27 -74 36 -140 2 -19 7 -46 10 -60 3
-14 8 -49 11 -77 5 -42 4 -53 -7 -53 -12 0 -12 -2 0 -9 17 -11 17 -10 25 -118
5 -75 4 -82 -12 -77 -16 5 -16 5 1 -6 17 -11 25 -66 8 -56 -10 7 -25 -24 -16
-33 3 -3 10 1 15 9 7 11 10 5 10 -22 0 -29 -4 -38 -17 -39 -17 -1 -17 -2 0 -6
16 -4 17 -15 15 -84 -3 -64 -7 -82 -23 -95 -17 -13 -17 -15 -2 -10 13 4 17 0
17 -19 0 -17 -6 -25 -17 -26 -16 -1 -16 -2 -2 -6 17 -4 15 -43 -2 -43 -5 0 -9
-9 -9 -20 0 -11 5 -20 10 -20 6 0 10 -5 10 -11 0 -6 -6 -9 -13 -6 -8 3 -14 0
-15 -6 -4 -43 -7 -57 -14 -57 -16 0 -7 -20 10 -21 15 -1 15 -2 0 -6 -22 -6
-30 -83 -8 -83 11 -1 10 -4 -5 -16 -13 -10 -16 -17 -9 -22 7 -4 8 -15 3 -27
-7 -19 -8 -19 -8 -1 -1 11 -4 16 -8 12 -9 -9 -52 -148 -72 -236 -27 -119 -127
-344 -219 -493 -24 -38 -40 -72 -37 -78 4 -5 1 -9 -4 -9 -6 0 -20 -9 -31 -20
-20 -20 -33 -20 -893 -20 l-874 0 -20 23 c-48 53 -203 335 -203 369 0 9 -4 20
-10 23 -5 3 -10 16 -10 27 0 12 -7 29 -15 37 -33 37 -131 394 -150 546 -23
190 -28 256 -27 418 0 203 15 398 38 499 7 35 21 101 29 148 10 52 22 90 32
98 9 6 42 12 73 12 51 0 58 3 68 25 16 35 15 43 -8 72 -28 36 -25 70 15 174
19 50 35 96 35 103 0 6 11 21 24 33 l24 23 25 -38 c66 -101 112 -227 123 -340
11 -117 65 -146 124 -67 27 36 42 47 73 52 61 9 66 34 28 142 -37 106 -37 113
-8 169 l23 43 46 -103 c66 -146 67 -152 29 -187 -37 -35 -38 -41 -9 -68 21
-19 40 -21 196 -26 l173 -5 10 24 c12 34 15 29 -45 92 -33 35 -59 75 -69 103
l-15 47 36 6 c21 3 49 6 63 6 20 0 33 11 59 53 l33 52 14 -35 c25 -66 23 -65
127 -71 53 -4 102 -12 110 -18 10 -8 18 -6 32 10 19 21 18 22 -14 77 -60 104
-92 178 -107 246 -19 95 -23 97 -201 99 -141 1 -148 0 -162 -21 -13 -20 -12
-24 20 -56 l35 -35 -35 -73 c-58 -121 -57 -121 -88 -54 -30 66 -54 148 -54
189 0 58 -11 62 -133 59 -62 -1 -122 -8 -134 -14 -47 -23 -38 -75 17 -98 35
-15 36 -16 10 -55 -11 -16 -20 -37 -20 -46 0 -14 -39 -49 -54 -49 -5 0 -84
129 -125 203 -14 26 -31 47 -38 47 -7 0 -13 3 -13 6 0 13 108 140 169 199 33
32 61 65 61 73 0 7 4 11 9 7 5 -3 15 1 23 8 27 27 166 116 237 152 123 61 243
88 391 86 69 0 132 -2 140 -4 8 -2 33 -7 55 -11 22 -4 72 -18 110 -31 39 -12
83 -23 98 -24 36 -1 47 -8 42 -24 -6 -14 99 -72 113 -63 10 6 29 -12 32 -29 2
-14 60 -66 60 -54 0 5 5 9 10 9 6 0 10 -6 8 -13 -2 -7 34 -49 80 -94 45 -45
82 -87 82 -93 0 -7 8 -9 19 -5 15 4 19 0 19 -20 0 -29 30 -68 47 -61 6 2 17
-4 23 -15 10 -16 8 -21 -18 -34 -58 -30 -100 -111 -100 -192 0 -124 97 -193
272 -193 75 0 84 -4 79 -32 0 -5 4 -8 9 -8 6 0 11 -12 11 -27 l1 -28 7 30 c4
17 3 38 -2 48 -11 23 -8 26 34 31 19 3 42 8 52 11 10 4 17 3 17 -4 0 -6 5 -11
11 -11 6 0 9 7 5 15 -3 8 0 15 7 15 12 0 35 29 48 60 4 8 0 23 -9 33 -12 14
-25 16 -56 12 -40 -6 -41 -6 -43 24 -1 17 2 33 7 36 13 8 13 45 0 45 -5 0 -10
-6 -10 -12 0 -10 -3 -9 -9 1 -5 7 -13 11 -19 7 -6 -3 -13 -2 -17 4 -9 14 -44
-10 -38 -27 3 -7 9 -11 13 -8 5 3 11 1 15 -5 4 -6 -4 -9 -19 -8 -15 1 -26 7
-26 13 0 5 -9 -3 -19 -18 -10 -16 -21 -25 -25 -19 -3 5 18 34 47 63 29 30 63
71 76 92 l24 39 -20 26 c-22 30 -61 39 -94 22 -15 -9 -24 -9 -32 -1 -8 8 -7
11 4 11 12 0 12 2 -1 10 -13 8 -12 10 3 10 9 0 17 5 17 10 0 7 -8 6 -21 -2
-55 -33 -66 -38 -91 -38 -21 0 -25 4 -21 20 8 30 22 34 44 14 10 -9 19 -14 19
-11 0 12 -33 46 -40 42 -4 -3 -5 8 -3 23 3 16 1 22 -4 16 -4 -6 -17 -9 -28 -7
-11 3 -29 6 -40 7 -30 4 -95 35 -95 46 0 18 19 20 30 3 11 -17 11 -17 6 0 -3
9 -1 17 4 17 6 0 10 7 10 15 0 8 -5 15 -12 15 -6 0 -9 2 -6 5 3 3 17 0 31 -6
21 -10 29 -9 41 4 22 21 20 30 -4 22 -12 -4 -27 -1 -35 5 -12 10 -21 6 -49
-18 -19 -17 -32 -34 -28 -39 4 -4 -5 3 -20 16 -16 14 -28 33 -28 43 0 11 -5
16 -11 12 -16 -9 -79 55 -72 74 4 10 2 13 -5 8 -16 -10 -14 5 3 28 8 11 18 16
22 11 5 -4 2 -10 -4 -12 -9 -3 -11 -14 -6 -31 7 -30 27 -54 37 -45 3 3 -2 12
-12 19 -21 15 -14 23 21 26 14 1 24 4 22 7 -3 2 1 11 8 19 9 12 9 16 0 19 -7
3 -12 14 -12 26 1 17 2 18 6 5 2 -10 11 -18 20 -18 9 0 13 6 10 14 -4 9 3 16
19 20 17 5 24 13 24 31 0 20 -5 25 -26 25 -40 0 -18 18 31 26 35 5 45 10 45
25 0 11 5 19 11 19 5 0 7 5 4 10 -9 14 -25 12 -25 -3 0 -20 -52 -46 -57 -29
-6 16 -23 16 -23 -1 0 -10 -19 -12 -75 -11 -50 2 -75 -1 -75 -8 0 -6 3 -9 6
-5 3 3 11 1 18 -4 6 -5 20 -16 31 -24 20 -14 19 -14 -3 -8 -18 4 -21 2 -15
-12 5 -15 2 -17 -16 -12 -25 6 -51 0 -51 -13 0 -5 8 -11 18 -13 13 -4 11 -5
-5 -6 -13 0 -23 -5 -23 -11 0 -5 -4 -10 -10 -10 -5 0 -7 8 -3 18 5 14 3 15 -8
5 -25 -24 -33 -13 -9 12 27 29 27 30 -24 38 -34 5 -38 4 -33 -13 5 -18 3 -18
-34 3 -42 24 -49 41 -22 56 10 5 14 13 10 17 -5 5 -11 4 -15 -1 -11 -16 -49
-34 -56 -28 -3 3 -2 11 4 18 6 7 6 23 1 41 -9 30 -12 29 -16 -6 -1 -11 -3 -24
-4 -30 0 -5 -5 -10 -11 -10 -5 0 -7 7 -3 16 3 9 0 20 -8 25 -10 6 -10 9 -1 9
6 0 12 7 12 15 0 8 3 14 8 14 19 -3 56 3 44 8 -6 2 -10 9 -6 14 3 5 -3 9 -13
9 -10 0 -25 5 -33 10 -10 6 163 10 498 10 l512 0 0 -1932z m-2905 1912 c3 -5
1 -10 -4 -10 -6 0 -11 5 -11 10 0 6 2 10 4 10 3 0 8 -4 11 -10z m1052 -16 c-3
-3 -12 -4 -19 -1 -8 3 -5 6 6 6 11 1 17 -2 13 -5z m-810 -45 c14 -27 9 -55
-15 -82 -27 -30 -103 -6 -101 32 0 10 2 11 6 4 2 -7 9 -13 15 -13 6 0 7 8 4
17 -6 15 -5 16 11 1 10 -8 25 -18 33 -22 8 -3 3 -4 -12 -1 -16 3 -28 1 -28 -5
0 -13 57 -13 65 0 3 6 0 17 -9 25 -11 11 -15 12 -19 2 -3 -9 -10 -7 -25 6 -22
20 -20 43 5 64 20 16 55 2 70 -28z m533 21 c0 -5 -5 -10 -11 -10 -5 0 -7 5 -4
10 3 6 8 10 11 10 2 0 4 -4 4 -10z m-783 -32 c-3 -8 -6 -5 -6 6 -1 11 2 17 5
13 3 -3 4 -12 1 -19z m953 7 c0 -8 -4 -15 -10 -15 -5 0 -7 7 -4 15 4 8 8 15
10 15 2 0 4 -7 4 -15z m880 -5 c0 -13 -11 -13 -30 0 -12 8 -11 10 8 10 12 0
22 -4 22 -10z m50 -20 c0 -5 -2 -10 -4 -10 -3 0 -8 5 -11 10 -3 6 -1 10 4 10
6 0 11 -4 11 -10z m-1883 -47 c-3 -10 -5 -4 -5 12 0 17 2 24 5 18 2 -7 2 -21
0 -30z m673 28 c0 -12 -28 -22 -34 -12 -3 5 -3 11 1 15 9 9 33 7 33 -3z m1619
-33 c11 -29 -21 -64 -47 -52 -16 7 -16 7 1 11 9 3 15 9 11 14 -7 12 5 49 17
49 5 0 13 -10 18 -22z m-2284 -138 c-7 -21 4 -27 21 -11 5 6 10 -4 11 -27 1
-20 4 -53 6 -72 3 -19 3 -38 0 -42 -7 -13 -31 16 -25 31 4 10 1 12 -7 7 -7 -5
-11 -16 -8 -26 2 -10 1 -24 -4 -31 -5 -9 -9 27 -9 89 0 66 4 102 11 102 6 0 8
-9 4 -20z m19 -221 c-10 -20 -12 -35 -6 -41 12 -12 3 -101 -12 -110 -7 -5 -5
-8 5 -8 12 0 14 -8 11 -31 -3 -19 0 -34 9 -39 17 -11 -6 -41 -27 -33 -11 4
-14 30 -14 123 0 108 2 120 23 144 29 33 31 33 11 -5z m2394 -25 c15 -33 8
-30 -18 6 -14 20 -16 28 -7 24 8 -3 19 -16 25 -30z m47 -4 c-3 -5 -10 -10 -16
-10 -5 0 -9 5 -9 10 0 6 7 10 16 10 8 0 12 -4 9 -10z m-75 -30 c8 -15 8 -18
-3 -14 -8 3 -14 11 -14 19 0 20 4 19 17 -5z m100 10 c0 -5 -7 -10 -16 -10 -10
0 -12 -5 -7 -12 10 -17 13 -38 5 -38 -4 0 -15 11 -24 25 -18 24 -16 27 40 44
1 1 2 -3 2 -9z m-2433 -57 c-3 -3 -11 -2 -17 2 -9 6 -9 10 1 16 14 8 27 -7 16
-18z m3 -23 c0 -5 -5 -10 -11 -10 -5 0 -7 5 -4 10 3 6 8 10 11 10 2 0 4 -4 4
-10z m996 -4 c1 0 4 -31 7 -68 4 -56 15 -86 57 -170 52 -103 81 -174 104 -258
9 -29 22 -50 38 -59 21 -12 71 -71 65 -77 -1 -1 -21 1 -44 6 -24 4 -43 4 -43
1 0 -3 -17 -5 -37 -3 -102 9 -128 9 -154 2 -24 -7 -32 -5 -43 12 -14 19 -13
23 8 39 21 16 23 25 19 71 -3 29 -5 70 -4 91 0 20 -4 37 -10 37 -6 0 -9 -7 -5
-15 3 -8 1 -15 -4 -15 -6 0 -10 6 -10 13 0 7 -6 19 -12 25 -7 7 -13 16 -14 20
0 4 -8 23 -16 42 -9 19 -19 43 -22 53 -5 15 -12 17 -34 12 -61 -13 -63 36 -6
121 l23 34 -24 15 c-14 8 -36 22 -50 30 -15 9 -22 21 -19 30 4 11 28 15 97 17
77 3 126 1 133 -6z m-494 -2 c44 -6 46 -8 89 -83 24 -42 54 -92 67 -111 13
-19 28 -45 33 -57 11 -28 25 -29 41 -3 15 24 44 26 65 5 8 -8 20 -13 26 -9 7
3 5 0 -4 -8 -54 -45 -60 -105 -20 -214 30 -85 28 -114 -8 -114 -10 0 -37 -21
-60 -46 -24 -25 -50 -44 -59 -42 -15 3 -29 49 -45 158 -9 53 -18 80 -29 80 -5
0 -8 8 -5 18 4 19 -19 72 -32 72 -10 0 -6 43 4 61 5 7 3 10 -5 7 -16 -5 -50
26 -50 46 0 8 6 17 13 19 7 3 4 6 -7 6 -15 1 -16 4 -6 16 7 8 16 12 21 9 16
-10 9 3 -8 17 -10 7 -15 9 -11 5 10 -11 -10 -36 -28 -36 -7 0 -16 10 -19 21
-7 20 -10 19 -46 -22 -37 -42 -39 -43 -54 -25 -10 14 -12 23 -4 32 7 8 7 14
-1 19 -5 3 -10 12 -9 18 0 7 3 6 6 -3 5 -11 30 61 33 91 0 9 -60 33 -66 26
-10 -9 -32 17 -27 30 3 7 9 10 14 7 5 -3 9 0 9 5 0 12 109 15 182 5z m733 -3
c-3 -5 5 -13 17 -16 13 -4 30 -14 39 -22 14 -12 17 -11 22 7 7 26 57 29 57 3
0 -16 -2 -16 -11 -3 -9 12 -10 12 -7 1 7 -25 28 -24 29 1 1 17 3 18 6 6 6 -24
23 -23 23 2 0 24 19 26 46 5 16 -13 17 -16 4 -25 -13 -8 -13 -10 1 -10 11 0
16 -10 17 -29 0 -17 5 -39 11 -50 6 -11 11 -29 11 -41 0 -15 5 -20 14 -17 10
4 12 0 9 -14 -3 -10 0 -19 6 -19 6 0 11 -4 11 -10 0 -5 14 -31 30 -57 17 -26
30 -51 30 -55 0 -4 -42 -7 -94 -6 -76 3 -92 6 -88 17 4 10 1 13 -12 8 -10 -4
-15 -3 -11 3 3 5 -1 22 -9 38 -8 16 -12 32 -9 36 4 3 1 6 -5 6 -6 0 -11 12
-11 28 -2 81 -23 111 -107 153 -66 34 -80 54 -41 62 12 2 23 5 25 6 2 0 1 -3
-3 -8z m1401 -16 c5 -13 -62 -114 -77 -115 -4 0 -10 15 -13 34 -7 36 -21 46
-62 46 -42 0 -63 -18 -75 -65 -6 -25 -15 -45 -19 -45 -5 0 3 -22 16 -48 19
-39 33 -52 72 -69 43 -19 59 -20 155 -14 107 6 132 0 80 -20 -32 -12 -57 -17
-164 -31 -87 -12 -164 5 -210 45 -31 28 -47 62 -24 53 8 -3 15 -2 15 3 0 5 -9
11 -21 14 -17 5 -20 11 -14 35 3 17 2 33 -4 36 -12 8 -5 17 67 93 l49 52 82
-2 c45 -1 87 1 94 5 20 13 47 9 53 -7z m-126 -96 c0 -11 -4 -17 -10 -14 -5 3
-10 13 -10 21 0 8 5 14 10 14 6 0 10 -9 10 -21z m-1238 -16 c17 -16 17 -18 -7
-60 -29 -48 -20 -62 29 -44 52 20 43 -31 -17 -96 -28 -32 -121 -33 -137 -3 -9
17 -5 31 26 80 21 35 34 66 30 75 -3 9 -2 13 4 10 6 -3 13 2 17 12 7 21 23 43
31 43 3 0 14 -7 24 -17z m1218 -40 c0 -7 -6 -13 -12 -14 -10 0 -10 -2 0 -6 6
-2 12 -13 12 -23 0 -10 5 -22 10 -25 6 -3 10 -1 10 5 0 6 5 8 11 4 8 -5 6 -10
-6 -17 -13 -7 -24 -4 -43 10 -34 26 -48 67 -32 101 l12 26 19 -24 c10 -14 19
-31 19 -37z m-2527 14 c4 3 7 1 7 -5 0 -6 -9 -10 -20 -9 -13 1 -20 8 -20 22 1
19 2 19 14 3 7 -10 16 -15 19 -11z m1353 -34 c-11 -11 -17 4 -9 23 7 18 8 18
11 1 2 -10 1 -21 -2 -24z m-1316 -13 c0 -5 -5 -10 -11 -10 -5 0 -7 5 -4 10 3
6 8 10 11 10 2 0 4 -4 4 -10z m2655 -10 c3 -5 -1 -10 -9 -10 -9 0 -16 5 -16
10 0 6 4 10 9 10 6 0 13 -4 16 -10z m-2718 -42 c-3 -8 -6 -5 -6 6 -1 11 2 17
5 13 3 -3 4 -12 1 -19z m2723 2 c-34 -11 -60 -11 -35 0 11 5 29 8 40 8 16 0
15 -2 -5 -8z m-2285 -41 c-1 -22 -8 -46 -14 -52 -6 -6 -11 -17 -11 -24 0 -8
-9 -33 -21 -56 -11 -23 -23 -63 -26 -89 -5 -39 -2 -49 16 -64 35 -31 26 -44
-28 -44 -28 0 -52 -4 -56 -10 -3 -5 -12 -7 -19 -4 -8 3 -17 1 -21 -5 -3 -6
-15 -11 -26 -11 -10 0 -19 -4 -19 -10 0 -12 -37 -13 -44 -1 -3 4 19 34 49 66
39 41 60 73 72 111 9 30 20 54 25 54 4 0 8 14 8 30 0 17 5 30 10 30 6 0 10 8
10 18 0 35 36 87 66 93 16 4 29 7 30 8 1 0 0 -17 -1 -40z m755 -3 c0 -3 -4 -8
-10 -11 -5 -3 -10 -1 -10 4 0 6 5 11 10 11 6 0 10 -2 10 -4z m-1193 -138 c-3
-8 -6 -5 -6 6 -1 11 2 17 5 13 3 -3 4 -12 1 -19z m3001 -193 c2 -69 -1 -101
-9 -106 -10 -6 -10 -11 -2 -21 8 -9 12 -70 12 -171 l0 -157 -33 0 -33 0 -1 86
c-1 72 1 85 13 80 9 -3 15 1 15 10 0 8 5 12 10 9 6 -3 10 1 10 9 0 19 -36 22
-43 4 -3 -7 -6 1 -6 17 0 17 4 37 9 45 6 10 10 11 10 3 0 -7 5 -13 11 -13 6 0
9 8 7 18 -2 9 -11 16 -21 16 -13 -1 -17 6 -17 37 0 21 5 41 10 44 6 3 10 13
10 21 0 8 -4 12 -10 9 -5 -3 -10 2 -10 11 0 16 2 16 20 -1 11 -10 23 -15 27
-12 4 4 -2 14 -13 22 -18 14 -18 14 4 15 19 0 21 2 10 14 -7 8 -14 10 -16 5
-2 -5 -10 -9 -18 -9 -10 0 -14 12 -14 43 0 31 3 38 10 27 8 -12 10 -11 10 8 0
12 -4 22 -10 22 -5 0 -10 6 -10 14 0 10 8 12 33 7 l32 -7 3 -99z m-3001 63
c-3 -7 -5 -2 -5 12 0 14 2 19 5 13 2 -7 2 -19 0 -25z m2883 -18 c0 -5 -4 -10
-10 -10 -5 0 -10 5 -10 10 0 6 5 10 10 10 6 0 10 -4 10 -10z m-20 -44 c0 -8
-9 -16 -20 -19 -13 -3 -20 0 -20 10 0 10 6 13 16 9 12 -5 15 -2 10 9 -3 9 -2
13 4 10 6 -3 10 -12 10 -19z m-2849 -111 c5 4 9 1 9 -4 0 -6 -4 -11 -8 -11 -5
0 -10 -23 -11 -52 -3 -100 -11 -60 -9 48 1 60 3 88 5 61 2 -26 8 -45 14 -42z
m14 -65 c3 -5 1 -10 -4 -10 -6 0 -11 5 -11 10 0 6 2 10 4 10 3 0 8 -4 11 -10z
m2816 -64 c10 6 39 -13 39 -26 0 -3 -7 -7 -15 -7 -8 0 -15 4 -15 9 0 4 -5 7
-12 6 -6 -2 -13 6 -15 17 -1 11 0 14 3 7 3 -6 10 -9 15 -6z m-2813 -41 c-3 -3
-9 2 -12 12 -6 14 -5 15 5 6 7 -7 10 -15 7 -18z m-26 -35 c3 -17 1 -33 -4 -36
-4 -3 -8 11 -8 30 0 44 6 47 12 6z m2878 12 c0 -9 -32 -42 -42 -42 -4 0 -8 10
-8 23 0 16 6 22 25 23 14 1 25 -1 25 -4z m-2883 -94 c-3 -7 -5 -2 -5 12 0 14
2 19 5 13 2 -7 2 -19 0 -25z m40 -40 c-3 -7 -5 -2 -5 12 0 14 2 19 5 13 2 -7
2 -19 0 -25z m2827 -43 c3 -8 1 -15 -4 -15 -6 0 -10 7 -10 15 0 8 2 15 4 15 2
0 6 -7 10 -15z m136 -26 c0 -33 1 -33 -36 -19 -25 10 -26 12 -9 24 10 7 15 18
12 24 -5 6 0 8 13 5 14 -4 20 -14 20 -34z m-2995 11 c3 -5 1 -10 -4 -10 -6 0
-11 5 -11 10 0 6 2 10 4 10 3 0 8 -4 11 -10z m2995 -109 c0 -6 -3 -10 -7 -10
-22 4 -35 -3 -42 -23 -8 -20 -10 -21 -16 -6 -4 11 1 29 15 48 19 26 23 28 36
16 8 -8 14 -19 14 -25z m-125 10 c3 -5 1 -12 -5 -16 -5 -3 -10 1 -10 9 0 18 6
21 15 7z m125 -88 l0 -47 -22 21 c-18 18 -19 24 -8 37 8 11 9 16 1 16 -6 0
-11 5 -11 10 0 6 9 10 20 10 17 0 20 -7 20 -47z m-2997 -15 c-8 -46 -13 -48
-13 -5 0 21 4 37 10 37 5 0 7 -14 3 -32z m2997 -53 c0 -8 -3 -15 -6 -15 -3 0
-12 7 -20 15 -14 13 -13 15 5 15 12 0 21 -6 21 -15z m-2996 -45 c-2 -71 -14
-76 -14 -7 0 32 4 57 8 57 5 0 7 -23 6 -50z m2993 -112 c-3 -7 -5 -2 -5 12 0
14 2 19 5 13 2 -7 2 -19 0 -25z m-2947 -68 c-6 -11 -15 -18 -20 -15 -6 4 -5
12 3 20 18 21 29 18 17 -5z m-36 -82 c7 -5 4 -8 -6 -8 -12 0 -18 7 -17 23 0
15 2 17 6 7 3 -8 11 -18 17 -22z m2931 -108 c3 -5 1 -10 -4 -10 -6 0 -11 5
-11 10 0 6 2 10 4 10 3 0 8 -4 11 -10z m-100 -130 c3 -5 -1 -10 -9 -10 -9 0
-16 5 -16 10 0 6 4 10 9 10 6 0 13 -4 16 -10z m35 -31 c0 -11 -4 -17 -10 -14
-5 3 -10 13 -10 21 0 8 5 14 10 14 6 0 10 -9 10 -21z m-50 -13 c0 -3 -4 -8
-10 -11 -5 -3 -10 -1 -10 4 0 6 5 11 10 11 6 0 10 -2 10 -4z m120 -28 c-3 -38
-1 -50 10 -43 6 3 10 1 10 -4 0 -6 7 -11 15 -11 12 0 15 -13 15 -61 0 -36 -4
-58 -10 -54 -5 3 -7 12 -3 20 3 9 -1 15 -9 15 -29 0 -49 39 -47 93 1 29 4 55
6 60 8 14 14 7 13 -15z m-105 2 c-3 -5 -14 -10 -23 -9 -14 0 -13 2 3 9 27 11
27 11 20 0z m-2848 -52 c-2 -13 -4 -5 -4 17 -1 22 1 32 4 23 2 -10 2 -28 0
-40z m2883 -14 c0 -8 -5 -12 -10 -9 -6 4 -8 11 -5 16 9 14 15 11 15 -7z
m-2867 -116 c9 -6 9 -8 0 -8 -6 0 -14 -10 -16 -22 -2 -13 -4 11 -4 52 0 45 2
57 4 30 3 -24 10 -48 16 -52z m2928 -81 c-10 -9 -11 -8 -5 6 3 10 9 15 12 12
3 -3 0 -11 -7 -18z m-2939 -71 c-6 -48 -12 -46 -12 5 0 22 4 38 8 35 4 -3 6
-21 4 -40z m2997 -70 c0 -17 -3 -24 -6 -16 -3 8 -12 19 -20 23 -16 10 -10 24
12 24 10 0 15 -10 14 -31z m-2991 -80 c1 -30 -2 -57 -6 -60 -5 -3 -10 21 -10
54 -1 75 13 80 16 6z m2625 19 c-3 -9 -8 -14 -10 -11 -3 3 -2 9 2 15 9 16 15
13 8 -4z m367 -37 c0 -23 -3 -38 -7 -35 -3 4 -12 2 -19 -4 -10 -8 -13 -6 -12
8 0 10 -3 26 -7 36 -5 12 -3 17 9 17 9 0 16 5 16 10 0 6 5 10 10 10 6 0 10
-19 10 -42z m-3 -200 c-3 -8 -6 -5 -6 6 -1 11 2 17 5 13 3 -3 4 -12 1 -19z
m-147 -2 c0 -11 -19 -15 -25 -6 -3 5 1 10 9 10 9 0 16 -2 16 -4z m-400 -306
c0 -84 -4 -130 -10 -130 -6 0 -10 6 -9 13 1 6 1 60 0 120 l-1 107 -932 -2
-933 -3 928 -2 927 -3 0 -105 0 -105 -32 0 c-18 0 -45 6 -60 14 -22 12 -26 12
-21 1 2 -8 28 -18 56 -23 42 -8 20 -10 -120 -11 -152 -1 -195 5 -165 22 4 2 1
2 -6 0 -8 -1 -20 -3 -28 -3 -9 0 -12 -4 -9 -10 4 -7 -247 -10 -744 -10 l-751
0 -1 43 c0 23 -2 81 -3 130 l-2 87 958 0 958 0 0 -130z m550 -86 c0 -8 -4 -14
-10 -14 -5 0 -10 9 -10 21 0 11 5 17 10 14 6 -3 10 -13 10 -21z m-962 -103
c-99 -72 -231 -126 -403 -168 -45 -11 -172 -12 -241 -2 -153 21 -352 99 -428
167 -11 11 -30 24 -41 30 -15 9 134 11 574 12 l594 0 -55 -39z m869 -193 c-2
-35 -3 -9 -3 57 0 66 1 94 3 63 2 -32 2 -86 0 -120z m-2659 75 c31 -42 0 -103
-53 -103 -33 0 -65 28 -65 55 0 5 5 2 11 -8 14 -24 32 -11 18 14 -17 32 14 73
49 64 15 -3 33 -13 40 -22z m2571 12 c16 -8 31 -24 34 -35 9 -35 -12 -79 -41
-87 -29 -7 -73 13 -80 37 -4 12 -1 11 15 -2 21 -19 48 -25 38 -8 -4 6 -11 8
-16 5 -12 -8 -11 -3 1 31 9 24 9 25 -5 14 -13 -10 -15 -9 -15 9 0 11 5 21 11
21 5 0 8 4 5 9 -5 8 4 15 22 20 2 1 16 -6 31 -14z m-2352 -171 c-3 -3 -12 -4
-19 -1 -8 3 -5 6 6 6 11 1 17 -2 13 -5z m646 -1 c-7 -2 -21 -2 -30 0 -10 3 -4
5 12 5 17 0 24 -2 18 -5z m770 0 c-7 -2 -21 -2 -30 0 -10 3 -4 5 12 5 17 0 24
-2 18 -5z m90 0 c-7 -2 -19 -2 -25 0 -7 3 -2 5 12 5 14 0 19 -2 13 -5z m330 0
c-57 -2 -149 -2 -205 0 -57 1 -11 3 102 3 113 0 159 -2 103 -3z m570 0 c-29
-2 -77 -2 -105 0 -29 2 -6 3 52 3 58 0 81 -1 53 -3z"/>
<path d="M2933 4513 c15 -2 39 -2 55 0 15 2 2 4 -28 4 -30 0 -43 -2 -27 -4z"/>
<path d="M3768 4513 c6 -2 18 -2 25 0 6 3 1 5 -13 5 -14 0 -19 -2 -12 -5z"/>
<path d="M2885 4490 c-3 -5 -1 -10 4 -10 6 0 11 5 11 10 0 6 -2 10 -4 10 -3 0
-8 -4 -11 -10z"/>
<path d="M3335 4470 c3 -5 11 -10 16 -10 6 0 7 5 4 10 -3 6 -11 10 -16 10 -6
0 -7 -4 -4 -10z"/>
<path d="M3530 4470 c0 -5 4 -10 9 -10 6 0 13 5 16 10 3 6 -1 10 -9 10 -9 0
-16 -4 -16 -10z"/>
<path d="M3802 4165 c-11 -13 -9 -15 8 -15 11 0 20 7 20 15 0 19 -11 19 -28 0z"/>
<path d="M3795 4070 c3 -5 12 -7 20 -3 21 7 19 13 -6 13 -11 0 -18 -4 -14 -10z"/>
<path d="M3806 3961 c-4 -5 -2 -12 3 -15 5 -4 12 -2 15 3 4 5 2 12 -3 15 -5 4
-12 2 -15 -3z"/>
<path d="M3815 3750 c-3 -5 -1 -10 4 -10 6 0 11 5 11 10 0 6 -2 10 -4 10 -3 0
-8 -4 -11 -10z"/>
<path d="M2060 4360 c0 -5 7 -7 15 -4 8 4 15 8 15 10 0 2 -7 4 -15 4 -8 0 -15
-4 -15 -10z"/>
<path d="M2840 4399 l-35 -6 35 -3 c19 -1 27 -4 18 -7 -26 -7 -22 -20 9 -28
17 -4 29 -2 31 4 2 6 11 11 19 11 13 0 13 3 3 15 -7 9 -15 13 -18 10 -3 -3
-10 -1 -16 3 -6 4 -27 5 -46 1z"/>
<path d="M2958 4402 c-16 -3 -16 -5 0 -23 20 -23 32 -24 32 -3 0 11 9 15 33
14 48 -3 71 -1 65 6 -7 7 -105 12 -130 6z"/>
<path d="M3234 4391 c0 -15 3 -17 13 -9 7 6 10 14 7 19 -9 15 -20 10 -20 -10z"/>
<path d="M3490 4400 c0 -5 5 -10 11 -10 5 0 7 5 4 10 -3 6 -8 10 -11 10 -2 0
-4 -4 -4 -10z"/>
<path d="M3138 4393 c7 -3 16 -2 19 1 4 3 -2 6 -13 5 -11 0 -14 -3 -6 -6z"/>
<path d="M3264 4389 c-7 -13 22 -46 32 -36 4 4 2 12 -4 20 -8 10 -6 13 9 13
12 0 19 -7 19 -19 0 -11 4 -15 11 -11 6 3 15 1 19 -6 5 -9 17 -10 36 -5 18 5
23 9 14 12 -8 3 -22 7 -30 10 -8 4 -18 5 -22 5 -5 -1 -8 5 -8 13 0 18 -65 21
-76 4z"/>
<path d="M3414 4386 c7 -6 17 -18 20 -26 3 -8 4 -5 2 7 -2 12 1 24 8 26 6 2
-1 4 -17 4 -22 0 -25 -2 -13 -11z"/>
<path d="M3685 4390 c4 -6 11 -8 16 -5 14 9 11 15 -7 15 -8 0 -12 -5 -9 -10z"/>
<path d="M3731 4384 c0 -11 3 -14 6 -6 3 7 2 16 -1 19 -3 4 -6 -2 -5 -13z"/>
<path d="M3135 4370 c-4 -6 -10 -8 -14 -6 -4 3 -7 -3 -8 -13 -1 -16 2 -17 23
-7 13 6 24 17 24 24 0 15 -16 16 -25 2z"/>
<path d="M3596 4355 c-9 -9 -16 -22 -16 -29 0 -24 41 -66 63 -66 27 0 54 16
44 26 -3 4 -13 1 -22 -6 -9 -7 -19 -10 -22 -6 -4 4 -1 12 7 17 11 8 12 12 2
16 -6 2 -9 10 -5 16 4 7 -1 6 -10 -2 -14 -11 -17 -11 -17 0 0 11 -2 11 -10 -1
-9 -13 -10 -13 -10 1 0 8 5 20 12 27 6 6 9 14 6 17 -3 3 -13 -1 -22 -10z m36
-67 c-6 -6 -15 -8 -19 -4 -4 4 -1 11 7 16 19 12 27 3 12 -12z"/>
<path d="M3640 4350 c0 -5 7 -10 15 -10 14 0 20 -13 15 -35 -1 -5 4 -4 11 2
10 10 9 17 -6 33 -20 22 -35 26 -35 10z"/>
<path d="M2800 4335 c0 -8 7 -15 16 -15 14 0 14 3 4 15 -7 8 -14 15 -16 15 -2
0 -4 -7 -4 -15z"/>
<path d="M3200 4330 c0 -5 7 -7 15 -4 8 4 15 8 15 10 0 2 -7 4 -15 4 -8 0 -15
-4 -15 -10z"/>
<path d="M3295 4329 c-4 -6 -5 -13 -2 -16 7 -7 27 6 27 18 0 12 -17 12 -25 -2z"/>
<path d="M3516 4308 c6 -19 5 -21 -8 -11 -17 14 -29 8 -22 -11 3 -8 -7 -11
-33 -8 l-38 3 27 -14 c15 -9 36 -13 48 -10 11 3 20 0 20 -6 0 -6 4 -11 9 -11
15 0 18 79 3 85 -10 4 -11 -1 -6 -17z"/>
<path d="M2972 4295 c-10 -21 -9 -25 3 -25 8 0 15 4 15 9 0 5 3 16 6 25 10 26
-12 18 -24 -9z"/>
<path d="M2840 4266 c0 -8 7 -17 16 -20 25 -9 26 -2 4 17 -16 13 -20 14 -20 3z"/>
<path d="M3570 4270 c0 -5 5 -10 10 -10 6 0 10 5 10 10 0 6 -4 10 -10 10 -5 0
-10 -4 -10 -10z"/>
<path d="M2900 4266 c0 -2 7 -6 15 -10 8 -3 15 -1 15 4 0 6 -7 10 -15 10 -8 0
-15 -2 -15 -4z"/>
<path d="M3553 4243 c-21 -7 -15 -32 7 -30 11 1 20 7 20 14 0 15 -11 22 -27
16z"/>
<path d="M3375 4229 c-4 -6 -5 -12 -2 -15 2 -3 7 2 10 11 7 17 1 20 -8 4z"/>
<path d="M3680 4200 c0 -5 10 -10 23 -10 18 0 19 2 7 10 -19 13 -30 13 -30 0z"/>
<path d="M3585 4190 c3 -5 8 -10 11 -10 2 0 4 5 4 10 0 6 -5 10 -11 10 -5 0
-7 -4 -4 -10z"/>
<path d="M3622 4184 c-7 -8 -10 -19 -7 -24 10 -16 -12 -12 -29 6 -15 14 -16
14 -16 -1 0 -9 9 -19 20 -22 11 -3 20 -10 20 -15 0 -6 7 -5 15 2 8 7 15 18 15
25 0 8 5 15 12 17 6 2 8 10 4 16 -9 16 -18 15 -34 -4z"/>
<path d="M3666 4135 c-3 -8 -1 -15 4 -15 6 0 10 7 10 15 0 8 -2 15 -4 15 -2 0
-6 -7 -10 -15z"/>
<path d="M3155 4130 c-3 -5 -1 -10 4 -10 6 0 11 5 11 10 0 6 -2 10 -4 10 -3 0
-8 -4 -11 -10z"/>
<path d="M3480 4114 c0 -14 3 -14 15 -4 8 7 15 14 15 16 0 2 -7 4 -15 4 -8 0
-15 -7 -15 -16z"/>
<path d="M3560 4109 c0 -5 5 -7 10 -4 6 3 10 8 10 11 0 2 -4 4 -10 4 -5 0 -10
-5 -10 -11z"/>
<path d="M3153 4081 c-15 -24 0 -52 19 -33 16 16 31 16 21 0 -4 -7 -6 -21 -5
-30 2 -10 -2 -18 -9 -18 -7 0 -10 -2 -7 -5 12 -13 38 8 33 26 -4 13 -1 19 9
19 9 0 16 5 16 10 0 6 -5 10 -11 10 -5 0 -7 5 -4 10 11 18 -5 32 -22 19 -11
-10 -16 -10 -22 -1 -4 8 -10 6 -18 -7z"/>
<path d="M3418 4084 c-4 -3 -14 -7 -25 -8 -10 -2 -18 -9 -18 -17 0 -8 -6 -15
-12 -15 -30 -3 -33 -4 -33 -12 0 -7 61 -8 80 -1 3 1 8 1 13 0 4 0 7 4 7 9 0 6
-10 10 -22 11 -21 1 -20 2 5 11 15 5 27 14 27 19 0 10 -14 12 -22 3z"/>
<path d="M3715 4080 c3 -5 8 -10 11 -10 2 0 4 5 4 10 0 6 -5 10 -11 10 -5 0
-7 -4 -4 -10z"/>
<path d="M3258 4071 c7 -4 12 -13 10 -18 -2 -6 1 -13 6 -14 5 -2 10 6 11 19 1
16 -4 22 -19 22 -15 0 -17 -3 -8 -9z"/>
<path d="M3486 4071 c-4 -6 -2 -11 5 -11 10 0 10 -3 1 -12 -10 -10 -15 -10
-22 2 -5 8 -12 11 -16 7 -4 -3 -1 -14 7 -24 12 -15 12 -16 -3 -10 -12 4 -15 2
-12 -7 3 -8 1 -17 -5 -21 -6 -3 -11 -1 -11 4 0 6 -11 11 -25 11 -14 0 -25 -5
-25 -12 0 -6 -3 -9 -6 -5 -4 3 -13 0 -20 -8 -8 -8 -22 -11 -31 -8 -11 4 -14 2
-11 -8 7 -20 58 -25 58 -5 0 15 16 21 52 18 10 -1 34 14 54 33 27 26 33 38 26
51 -6 11 -11 13 -16 5z"/>
<path d="M3682 4069 c2 -7 10 -15 17 -17 8 -3 12 1 9 9 -2 7 -10 15 -17 17 -8
3 -12 -1 -9 -9z"/>
<path d="M3590 4045 c-7 -9 -11 -18 -8 -20 3 -3 11 1 18 10 7 9 11 18 8 20 -3
3 -11 -1 -18 -10z"/>
<path d="M3731 4044 c0 -11 3 -14 6 -6 3 7 2 16 -1 19 -3 4 -6 -2 -5 -13z"/>
<path d="M3638 4043 c-10 -2 -18 -9 -18 -14 0 -6 9 -7 21 -4 13 4 25 2 29 -5
4 -7 13 -9 19 -6 8 5 7 11 -3 22 -15 14 -19 15 -48 7z"/>
<path d="M3160 4020 c0 -5 5 -10 10 -10 6 0 10 5 10 10 0 6 -4 10 -10 10 -5 0
-10 -4 -10 -10z"/>
<path d="M3550 4015 c7 -8 17 -15 22 -15 5 0 3 7 -6 15 -8 8 -18 15 -22 15 -3
0 -1 -7 6 -15z"/>
<path d="M3510 4011 c0 -5 -10 -12 -22 -16 -20 -6 -21 -8 -5 -12 10 -3 25 -2
33 1 16 6 19 36 4 36 -5 0 -10 -4 -10 -9z"/>
<path d="M3706 4012 c-3 -4 4 -13 14 -20 20 -12 34 -3 22 13 -9 13 -30 17 -36
7z"/>
<path d="M3390 3940 c-17 -13 -27 -15 -32 -7 -4 6 -10 8 -15 4 -4 -5 -1 -12 7
-17 23 -15 60 -12 66 5 11 27 -1 34 -26 15z"/>
<path d="M3296 3941 c-3 -5 1 -12 10 -15 20 -8 29 -1 19 13 -8 13 -22 14 -29
2z"/>
<path d="M3548 3943 c7 -3 16 -2 19 1 4 3 -2 6 -13 5 -11 0 -14 -3 -6 -6z"/>
<path d="M3271 3924 c0 -11 3 -14 6 -6 3 7 2 16 -1 19 -3 4 -6 -2 -5 -13z"/>
<path d="M3450 3925 c0 -8 2 -15 4 -15 2 0 6 7 10 15 3 8 1 15 -4 15 -6 0 -10
-7 -10 -15z"/>
<path d="M3460 3860 c-13 -8 -12 -10 3 -10 9 0 17 5 17 10 0 12 -1 12 -20 0z"/>
<path d="M3731 3844 c0 -11 3 -14 6 -6 3 7 2 16 -1 19 -3 4 -6 -2 -5 -13z"/>
<path d="M3507 3836 c-3 -8 0 -17 7 -19 10 -4 12 1 9 14 -6 23 -9 24 -16 5z"/>
<path d="M2984 3793 c-77 -4 -82 -5 -93 -31 -12 -25 -10 -29 23 -57 l36 -30 0
-95 c0 -77 -4 -103 -21 -134 -22 -42 -20 -71 8 -105 l18 -21 45 31 c41 28 50
30 100 25 53 -6 56 -5 68 21 16 37 16 37 -20 79 -26 29 -33 46 -36 93 -5 74
15 130 55 157 28 19 30 23 19 45 -13 27 -36 29 -202 22z m122 -63 c-14 -17
-27 -39 -27 -48 -1 -9 -3 -26 -5 -37 -16 -81 -8 -140 26 -177 17 -18 30 -36
30 -40 0 -15 -18 -16 -43 -3 -15 8 -27 11 -27 7 0 -7 -91 -52 -104 -52 -3 0
-5 11 -4 24 2 17 7 22 18 18 8 -3 12 -2 8 3 -4 4 -1 23 7 42 8 18 11 32 7 29
-4 -2 -6 13 -4 35 2 22 -1 46 -8 54 -10 12 -9 15 6 16 11 0 14 3 7 6 -21 8
-15 25 7 18 11 -3 25 -3 32 1 9 6 5 10 -11 14 -16 4 -27 15 -32 34 -4 15 -17
36 -29 46 -13 11 -17 21 -10 25 5 3 10 1 10 -6 0 -9 3 -9 14 0 15 12 74 12 91
0 6 -4 21 1 35 11 34 26 37 17 6 -20z"/>
<path d="M3002 3728 c9 -7 18 -20 21 -28 4 -10 6 -8 6 6 1 12 -6 25 -15 28
-25 9 -29 7 -12 -6z"/>
<path d="M3030 3656 c0 -2 7 -6 15 -10 8 -3 15 -1 15 4 0 6 -7 10 -15 10 -8 0
-15 -2 -15 -4z"/>
<path d="M2600 3783 c-29 -10 -80 -67 -91 -101 -22 -65 -14 -129 23 -201 47
-91 84 -115 161 -106 31 3 57 2 58 -2 2 -19 8 -45 11 -46 2 -1 13 -8 25 -14
57 -32 73 -6 73 116 0 49 5 102 10 117 13 34 5 60 -20 67 -20 5 -20 5 0 49 23
51 25 77 6 104 -13 17 -26 20 -128 21 -62 1 -120 -1 -128 -4z m124 -32 c16 -6
44 -9 62 -5 42 8 52 -11 33 -63 -19 -49 -35 -52 -53 -10 -17 42 -53 54 -96 32
-39 -20 -58 -60 -58 -120 0 -61 19 -100 59 -120 45 -24 87 -12 97 28 12 42 0
63 -38 71 -49 9 -28 21 43 24 l64 3 -9 -53 c-6 -29 -8 -86 -5 -125 3 -42 1
-73 -4 -73 -6 0 -19 16 -30 35 -23 39 -22 38 -95 35 -48 -2 -55 1 -89 36 -48
48 -75 109 -76 173 -1 41 3 56 26 83 31 36 90 68 120 64 11 -2 33 -8 49 -15z
m21 -101 c19 -37 20 -35 -15 -36 -47 -2 -80 -13 -80 -27 0 -18 40 -54 65 -59
33 -6 24 -33 -10 -33 -58 0 -82 97 -40 161 22 34 60 32 80 -6z"/>
<path d="M3655 3740 c3 -5 10 -10 16 -10 5 0 9 5 9 10 0 6 -7 10 -16 10 -8 0
-12 -4 -9 -10z"/>
<path d="M3737 3723 c-4 -3 -7 -15 -7 -25 0 -26 -31 -54 -56 -50 -33 5 -37
-24 -7 -43 25 -17 26 -17 21 3 -4 14 -2 19 7 16 15 -6 28 -44 15 -44 -5 0 -3
-14 3 -30 10 -26 30 -38 28 -17 -1 4 -1 26 -1 50 0 31 -3 38 -10 27 -8 -12
-10 -11 -10 7 0 12 6 23 12 25 7 3 13 23 14 46 1 45 1 45 -9 35z"/>
<path d="M3580 3673 c0 -7 5 -13 10 -13 6 0 10 4 10 9 0 5 8 12 18 14 9 3 5 4
-10 4 -16 -1 -28 -7 -28 -14z"/>
<path d="M3668 3682 c-10 -2 -18 -8 -18 -13 0 -13 27 -11 35 2 9 13 4 16 -17
11z"/>
<path d="M3610 3651 c0 -6 5 -13 10 -16 6 -3 10 1 10 9 0 9 -4 16 -10 16 -5 0
-10 -4 -10 -9z"/>
<path d="M3630 3604 c0 -6 5 -15 12 -22 9 -9 9 -15 0 -24 -17 -17 -15 -24 8
-25 14 -1 20 4 20 18 0 11 -9 29 -20 41 -11 12 -20 17 -20 12z"/>
<path d="M3730 3481 c0 -6 4 -13 10 -16 6 -3 7 1 4 9 -7 18 -14 21 -14 7z"/>
<path d="M3717 3453 c-3 -4 1 -14 9 -20 7 -7 15 -9 18 -4 3 5 -1 14 -8 20 -8
7 -16 8 -19 4z"/>
<path d="M3680 3392 c0 -12 19 -26 26 -19 2 2 -2 10 -11 17 -9 8 -15 8 -15 2z"/>
<path d="M3599 3358 c-11 -20 -10 -21 3 -10 9 7 24 9 34 5 18 -6 18 -6 2 10
-21 22 -25 21 -39 -5z"/>
<path d="M2220 3289 c0 -3 23 -6 50 -5 46 2 55 -3 51 -26 0 -5 3 -8 7 -8 5 0
8 -21 8 -47 l-1 -46 50 1 c73 3 82 3 110 1 34 -2 59 19 44 37 -8 10 -8 14 0
14 6 0 11 6 11 14 0 20 -28 46 -48 46 -11 -1 -8 -6 11 -16 34 -18 34 -32 2
-44 -14 -5 -25 -12 -25 -16 0 -3 6 -4 13 -1 8 3 14 -1 14 -9 0 -22 -45 -17
-57 7 -9 16 -8 26 5 45 8 13 11 24 6 24 -5 0 -12 -7 -15 -16 -5 -14 -8 -14
-24 3 -9 10 -14 14 -11 8 4 -5 9 -27 11 -47 3 -31 1 -38 -14 -38 -13 0 -18 8
-18 30 0 21 -5 30 -16 30 -12 0 -15 -7 -12 -30 3 -23 1 -30 -11 -30 -13 0 -16
12 -17 55 0 40 3 55 13 55 7 0 13 -7 13 -15 0 -8 4 -15 8 -15 4 0 8 11 8 25 0
14 -1 25 -2 25 -2 0 -14 -4 -28 -10 -14 -5 -26 -6 -26 -1 0 4 -25 8 -55 7 -30
0 -55 -3 -55 -7z m167 -91 c-3 -8 -6 -5 -6 6 -1 11 2 17 5 13 3 -3 4 -12 1
-19z"/>
<path d="M2630 3287 c-14 -7 -31 -25 -38 -40 -11 -22 -10 -31 3 -57 8 -16 23
-30 33 -31 42 -3 88 4 93 13 4 7 9 6 13 -1 6 -9 176 -15 336 -11 14 0 45 0 69
0 41 -1 43 0 37 24 -5 19 -2 26 14 31 11 3 20 12 20 20 0 7 10 15 22 17 33 5
37 38 4 38 -24 0 -52 -30 -40 -43 3 -3 -4 -11 -16 -17 -16 -9 -21 -18 -17 -36
3 -19 0 -24 -15 -24 -18 0 -20 6 -16 45 2 25 0 45 -4 45 -5 0 -8 -5 -8 -10 0
-6 -11 -3 -25 6 -23 15 -27 15 -50 0 -15 -10 -24 -25 -24 -39 l2 -22 4 23 c5
26 35 45 58 36 17 -7 40 -53 30 -62 -3 -3 -5 0 -5 6 0 14 -36 16 -45 3 -3 -5
5 -13 16 -16 20 -7 20 -8 6 -17 -20 -11 -73 17 -81 41 -3 9 -4 4 -2 -11 2 -22
-1 -28 -15 -28 -15 0 -17 5 -13 29 4 20 1 30 -9 34 -9 3 -18 0 -21 -8 -3 -9 0
-12 10 -8 18 7 18 -14 0 -33 -23 -22 -45 -18 -39 9 4 18 3 19 -6 7 -10 -13
-12 -13 -22 0 -9 12 -10 11 -6 -7 4 -17 1 -23 -13 -23 -23 0 -34 68 -15 89 18
19 37 4 29 -22 -6 -22 -6 -22 13 -2 11 11 18 26 15 33 -2 7 4 12 17 12 12 0
21 -6 21 -16 0 -11 6 -13 19 -9 13 4 23 0 30 -12 9 -16 10 -16 11 -2 0 18 -26
33 -41 23 -5 -3 -9 4 -9 16 0 17 -4 20 -22 15 -13 -4 -29 -14 -35 -23 -8 -9
-13 -11 -13 -4 0 17 -20 15 -41 -4 -14 -12 -22 -13 -39 -4 -12 6 -24 9 -27 7
-2 -3 5 -8 16 -12 17 -5 21 -15 21 -46 0 -39 0 -39 -41 -39 -36 0 -40 2 -37
22 2 13 11 24 23 27 16 3 17 1 7 -11 -6 -8 -9 -18 -5 -21 14 -15 23 -6 23 24
0 26 -3 29 -20 24 -22 -7 -26 5 -8 23 9 9 9 12 0 12 -7 0 -15 -14 -19 -30 -3
-17 -10 -33 -15 -36 -6 -4 -8 2 -4 14 4 11 2 23 -4 27 -6 4 -11 1 -9 -6 1 -8
1 -26 0 -40 -1 -23 -5 -25 -46 -28 -39 -2 -46 1 -56 23 -16 35 -3 75 28 87 27
10 63 3 74 -13 4 -6 9 -6 13 1 4 6 -4 15 -19 21 -34 13 -45 12 -75 -3z m620
-17 c0 -5 -9 -10 -21 -10 -11 0 -17 5 -14 10 3 6 13 10 21 10 8 0 14 -4 14
-10z m-413 -77 c-3 -10 -5 -4 -5 12 0 17 2 24 5 18 2 -7 2 -21 0 -30z"/>
<path d="M3583 3285 c-3 -9 -3 -18 -1 -21 3 -3 8 4 11 16 6 23 -1 27 -10 5z"/>
<path d="M3444 3268 c-4 -6 -3 -8 4 -4 12 7 27 -48 17 -64 -11 -18 -25 -10
-25 14 0 30 -15 42 -24 19 -7 -16 15 -48 44 -63 15 -8 18 11 12 88 -2 24 -16
29 -28 10z"/>
<path d="M2210 3261 c0 -5 5 -13 10 -16 6 -3 10 -2 10 4 0 5 -4 13 -10 16 -5
3 -10 2 -10 -4z"/>
<path d="M2240 3259 c0 -5 5 -7 10 -4 6 3 10 8 10 11 0 2 -4 4 -10 4 -5 0 -10
-5 -10 -11z"/>
<path d="M2301 3254 c0 -11 3 -14 6 -6 3 7 2 16 -1 19 -3 4 -6 -2 -5 -13z"/>
<path d="M2635 3251 c-7 -24 3 -49 26 -62 24 -12 38 14 19 36 -10 12 -9 15 4
15 9 0 16 4 16 10 0 5 -7 7 -15 4 -8 -4 -15 -1 -15 5 0 18 -28 12 -35 -8z m17
-13 c-7 -7 -12 -8 -12 -2 0 6 3 14 7 17 3 4 9 5 12 2 2 -3 -1 -11 -7 -17z m23
-28 c3 -5 2 -10 -4 -10 -5 0 -13 5 -16 10 -3 6 -2 10 4 10 5 0 13 -4 16 -10z"/>
<path d="M3300 3260 c0 -5 5 -10 11 -10 5 0 7 5 4 10 -3 6 -8 10 -11 10 -2 0
-4 -4 -4 -10z"/>
<path d="M3158 3253 c7 -3 16 -2 19 1 4 3 -2 6 -13 5 -11 0 -14 -3 -6 -6z"/>
<path d="M3255 3240 c-12 -13 -15 -27 -11 -45 5 -20 3 -25 -13 -25 -12 0 -21
8 -24 23 -4 19 -4 19 -6 -5 -1 -26 0 -26 76 -30 93 -4 139 13 120 43 -9 15 -9
23 1 39 15 25 4 27 -14 3 -13 -17 -13 -17 -14 0 0 9 -4 17 -8 17 -5 0 -6 -20
-2 -45 5 -35 4 -45 -7 -45 -17 0 -43 24 -43 39 0 14 17 14 23 1 3 -6 4 -5 3 2
-5 26 -31 13 -31 -14 1 -20 -4 -28 -17 -28 -10 0 -18 7 -18 16 0 8 -4 12 -10
9 -6 -3 -10 4 -10 17 0 18 2 20 10 8 8 -12 10 -11 10 7 0 12 6 24 13 26 7 3 7
6 1 6 -6 1 -19 -8 -29 -19z m128 -35 c4 -8 2 -17 -3 -20 -6 -4 -10 3 -10 14 0
25 6 27 13 6z"/>
<path d="M3605 3249 c-4 -6 -5 -12 -2 -15 2 -3 7 2 10 11 7 17 1 20 -8 4z"/>
<path d="M2480 3224 c0 -17 22 -14 28 4 2 7 -3 12 -12 12 -9 0 -16 -7 -16 -16z"/>
<path d="M3055 3229 c-4 -6 -5 -13 -2 -16 7 -7 27 6 27 18 0 12 -17 12 -25 -2z"/>
<path d="M2302 3205 c0 -16 2 -22 5 -12 2 9 2 23 0 30 -3 6 -5 -1 -5 -18z"/>
<path d="M2240 3178 c0 -15 8 -18 43 -16 40 1 40 1 7 5 -19 3 -38 10 -42 16
-5 8 -8 6 -8 -5z"/>
<path d="M3390 3157 c0 -25 21 -37 38 -21 8 8 11 18 7 22 -4 4 -10 1 -12 -5
-3 -7 -9 -13 -15 -13 -6 0 -8 7 -4 15 3 8 1 15 -4 15 -6 0 -10 -6 -10 -13z"/>
<path d="M3449 3133 c-13 -15 -12 -15 9 -4 23 12 28 21 13 21 -5 0 -15 -7 -22
-17z"/>
<path d="M3640 3080 c0 -5 5 -10 11 -10 5 0 7 5 4 10 -3 6 -8 10 -11 10 -2 0
-4 -4 -4 -10z"/>
<path d="M3717 2735 c-18 -13 -18 -14 1 -24 16 -8 21 -7 26 6 9 24 -6 34 -27
18z"/>
<path d="M2285 2475 c-64 -63 6 -160 93 -131 49 16 59 111 15 144 -28 21 -81
15 -108 -13z m105 -5 c43 -43 11 -120 -49 -120 -32 0 -71 39 -71 70 0 10 9 29
21 44 25 32 70 35 99 6z"/>
<path d="M3660 2440 c0 -5 5 -10 10 -10 6 0 10 5 10 10 0 6 -4 10 -10 10 -5 0
-10 -4 -10 -10z"/>
<path d="M3660 2360 c0 -5 5 -10 11 -10 5 0 7 5 4 10 -3 6 -8 10 -11 10 -2 0
-4 -4 -4 -10z"/>
<path d="M1935 2225 c-31 -30 -32 -73 -4 -109 17 -21 29 -26 65 -26 38 0 47 4
62 30 52 85 -54 175 -123 105z m99 -6 c32 -25 34 -66 5 -98 -46 -49 -133 2
-112 65 9 27 43 54 69 54 6 0 23 -9 38 -21z"/>
<path d="M1940 2167 c0 -24 23 -47 48 -46 20 1 22 2 7 6 -11 3 -28 15 -37 26
-10 12 -18 18 -18 14z"/>
<path d="M2635 2225 c-52 -51 -17 -135 56 -135 77 0 110 80 56 138 -28 31 -80
30 -112 -3z m108 -17 c23 -27 22 -59 -4 -87 -28 -30 -75 -25 -102 11 -18 24
-19 30 -7 58 22 52 76 61 113 18z"/>
<path d="M2640 2162 c0 -14 25 -41 40 -42 30 -4 50 0 50 10 0 6 -10 8 -24 4
-18 -4 -28 0 -38 15 -13 21 -28 28 -28 13z"/>
<path d="M3658 2193 c7 -3 16 -2 19 1 4 3 -2 6 -13 5 -11 0 -14 -3 -6 -6z"/>
<path d="M3658 2163 c7 -3 16 -2 19 1 4 3 -2 6 -13 5 -11 0 -14 -3 -6 -6z"/>
<path d="M2042 1797 c-50 -53 -13 -137 60 -137 70 0 103 86 53 135 -32 33 -83
34 -113 2z m98 -16 c0 -5 3 -16 6 -25 4 -11 1 -16 -10 -16 -23 0 -67 30 -60
41 7 12 64 12 64 0z m-32 -92 l37 -1 -29 -10 c-23 -9 -33 -7 -55 9 -14 11 -28
29 -30 39 -2 15 2 13 19 -8 16 -21 31 -28 58 -29z"/>
<path d="M2525 1795 c-52 -51 -15 -135 60 -135 47 0 75 29 75 78 0 77 -82 111
-135 57z m79 -11 c9 -3 16 -15 16 -25 0 -23 -4 -23 -36 -2 -19 12 -22 18 -12
24 16 10 13 10 32 3z m-49 -102 c-6 -7 -35 18 -35 31 0 5 9 2 20 -8 11 -10 18
-20 15 -23z"/>
<path d="M1038 4350 c12 -5 27 -20 32 -32 5 -15 9 -17 9 -7 1 19 -30 49 -50
48 -8 0 -4 -4 9 -9z"/>
<path d="M1310 3574 c0 -8 5 -12 10 -9 6 4 8 11 5 16 -9 14 -15 11 -15 -7z"/>
<path d="M2337 3731 c-4 -17 -3 -21 5 -13 5 5 8 16 6 23 -3 8 -7 3 -11 -10z"/>
<path d="M2287 3681 c-16 -16 -16 -20 -2 -31 9 -7 15 -8 15 -2 0 6 -6 13 -12
15 -8 3 -6 6 5 6 9 1 17 8 17 16 0 18 -1 18 -23 -4z"/>
<path d="M2316 3633 c-4 -9 -3 -19 0 -22 4 -3 9 0 11 6 3 10 10 10 24 2 21
-11 43 -3 33 12 -3 5 -9 7 -14 4 -5 -3 -18 -1 -29 4 -15 8 -20 7 -25 -6z"/>
<path d="M2280 3600 c0 -5 5 -10 11 -10 5 0 7 5 4 10 -3 6 -8 10 -11 10 -2 0
-4 -4 -4 -10z"/>
<path d="M2300 3530 c0 -5 5 -10 10 -10 6 0 10 5 10 10 0 6 -4 10 -10 10 -5 0
-10 -4 -10 -10z"/>
<path d="M2322 3501 c-11 -7 -11 -9 2 -14 10 -4 16 -1 16 8 0 17 -1 17 -18 6z"/>
<path d="M3271 3563 c0 -4 4 -17 9 -28 8 -19 9 -19 9 2 1 12 -3 25 -9 28 -5 3
-10 3 -9 -2z"/>
<path d="M3320 3481 c0 -5 6 -14 14 -20 12 -10 13 -8 9 8 -5 21 -23 30 -23 12z"/>
<path d="M3815 3049 c-9 -14 -2 -20 14 -10 8 6 9 11 3 15 -6 3 -14 1 -17 -5z"/>
<path d="M3810 2720 c10 -6 11 -10 3 -10 -7 0 -13 -4 -13 -8 0 -4 8 -8 18 -8
10 0 18 8 18 18 0 11 -8 18 -21 18 -16 0 -17 -2 -5 -10z"/>
<path d="M1404 760 c0 -63 1 -89 3 -57 2 31 2 83 0 115 -2 31 -3 5 -3 -58z"/>
<path d="M1430 835 c-11 -14 -10 -17 8 -22 19 -4 22 -13 22 -52 0 -55 12 -71
56 -71 41 0 84 34 84 66 0 47 -16 61 -77 69 -32 4 -63 11 -69 16 -7 6 -16 4
-24 -6z m137 -46 c20 -17 16 -67 -6 -79 -27 -14 -47 -13 -65 6 -16 16 -22 75
-9 88 10 10 62 -1 80 -15z"/>
<path d="M1673 832 c-51 -8 -73 -97 -31 -126 26 -18 66 -20 88 -5 12 8 9 9
-12 5 -20 -5 -34 0 -55 18 -15 13 -25 27 -22 31 4 3 32 7 63 9 80 5 82 16 3
16 -67 0 -74 3 -58 29 7 10 21 12 55 8 25 -4 46 -3 46 2 0 10 -45 18 -77 13z"/>
<path d="M1845 833 c-59 -15 -75 -85 -29 -122 29 -23 60 -27 84 -11 12 8 9 10
-11 10 -35 0 -79 36 -79 65 0 34 24 49 69 41 43 -7 66 8 28 18 -24 6 -32 6
-62 -1z"/>
<path d="M1955 833 c-13 -4 -7 -143 6 -143 5 0 9 11 9 25 0 14 3 25 6 25 3 0
20 -11 38 -25 18 -14 44 -25 57 -24 23 0 23 1 5 12 -11 7 -33 24 -50 38 -17
14 -36 24 -43 22 -7 -3 -13 10 -15 35 -2 21 -7 37 -13 35z"/>
<path d="M2406 833 c-3 -4 -6 -18 -6 -33 0 -14 -9 -43 -20 -65 -11 -22 -20
-40 -20 -41 0 -1 20 6 45 15 37 13 48 14 63 3 28 -20 42 -25 50 -17 4 3 -1 11
-11 17 -10 5 -36 36 -57 69 -20 32 -40 55 -44 52z m21 -104 c-29 -8 -31 -5
-17 21 11 21 12 21 25 3 12 -16 11 -19 -8 -24z"/>
<path d="M2562 824 c-40 -28 -25 -46 56 -69 13 -4 22 -14 22 -25 0 -27 -36
-35 -66 -15 -28 18 -52 11 -33 -11 6 -8 28 -14 49 -14 62 0 96 60 45 80 -84
33 -79 30 -63 46 13 13 20 14 37 5 24 -14 52 -4 30 10 -21 13 -52 11 -77 -7z"/>
<path d="M2683 833 c-39 -8 -27 -26 12 -19 l35 7 -25 -25 c-49 -50 -18 -106
59 -106 24 0 48 6 54 13 8 10 2 12 -29 9 -28 -3 -46 1 -59 13 -42 38 -10 85
56 85 21 0 46 5 54 10 11 7 5 10 -25 10 -22 0 -56 2 -75 4 -19 2 -45 2 -57 -1z"/>
<path d="M2894 826 c-54 -24 -60 -81 -13 -120 22 -19 38 -25 53 -20 36 11 40
23 7 22 -32 -1 -71 25 -71 47 0 9 13 11 43 8 23 -3 53 0 67 6 21 8 13 10 -42
10 -69 1 -81 8 -53 31 10 8 29 10 55 6 39 -6 55 6 24 18 -22 9 -35 7 -70 -8z"/>
<path d="M3156 813 c10 -40 14 -41 14 -5 0 18 -5 32 -10 32 -6 0 -8 -11 -4
-27z"/>
<path d="M3198 834 c-4 -5 0 -18 8 -29 15 -20 17 -12 5 19 -4 11 -10 15 -13
10z"/>
<path d="M3234 826 c-3 -8 -1 -23 5 -33 9 -15 10 -13 11 15 0 34 -7 42 -16 18z"/>
<path d="M2009 828 c0 -2 -2 -14 -3 -27 -3 -22 -2 -23 11 -6 16 22 17 35 3 35
-5 0 -10 -1 -11 -2z"/>
<path d="M2122 807 c-28 -31 -35 -60 -21 -91 13 -27 37 -30 30 -5 -2 8 -5 31
-8 51 -5 33 -2 39 21 49 20 9 32 9 51 1 22 -10 25 -18 25 -67 0 -30 5 -55 10
-55 6 0 10 25 10 55 0 49 3 57 23 64 42 16 76 -13 77 -66 0 -17 -4 -35 -10
-38 -5 -3 -10 -11 -10 -17 0 -6 9 -3 19 6 28 26 35 69 17 104 l-15 29 -100 1
c-89 0 -101 -2 -119 -21z"/>
<path d="M3021 821 c-8 -5 -9 -11 -3 -15 5 -3 6 -22 2 -44 -9 -50 -1 -114 14
-109 6 2 12 20 14 39 l3 36 39 -19 c42 -20 66 -24 74 -11 3 5 -11 14 -29 21
-34 12 -34 13 -19 37 10 15 14 33 10 49 -6 22 -12 25 -49 25 -23 0 -48 -4 -56
-9z m73 -23 c18 -26 5 -58 -24 -58 -17 0 -20 7 -20 40 0 46 19 54 44 18z"/>
<path d="M2995 683 c-6 -25 -8 -26 -14 -9 -7 19 -8 19 -13 -2 -5 -17 -2 -22
13 -22 18 0 38 44 26 56 -2 3 -8 -8 -12 -23z"/>
<path d="M2813 653 c9 -2 23 -2 30 0 6 3 -1 5 -18 5 -16 0 -22 -2 -12 -5z"/>
<path d="M1030 453 c0 -4 5 -15 10 -23 7 -11 10 -11 10 -2 0 7 5 10 10 7 15
-9 12 -25 -5 -25 -8 0 -15 -4 -15 -10 0 -5 5 -10 10 -10 6 0 10 -5 10 -11 0
-6 -9 -8 -20 -4 -12 4 -20 2 -20 -5 0 -6 12 -10 28 -8 16 2 27 9 27 18 0 8 3
17 7 20 11 9 -16 55 -35 58 -9 2 -17 0 -17 -5z"/>
<path d="M3645 438 c11 -6 23 -16 27 -22 5 -7 8 -8 8 0 0 15 -22 34 -39 34
-12 -1 -11 -4 4 -12z"/>
<path d="M3645 390 c-3 -6 -1 -10 5 -10 6 0 8 -4 5 -10 -3 -5 -2 -10 4 -10 17
0 20 14 5 27 -8 8 -15 9 -19 3z"/>
</g>
</svg>
